<svg viewBox="0 0 1024 1024" width="32" height="32" xmlns="http://www.w3.org/2000/svg" xmlns:xlink="http://www.w3.org/1999/xlink">
    <path fill="currentColor" d="M886 808v0l-92 92q-18 16-43 16-26 0-43-17L579 769q-17-17-17-43t20-45q2 1 12 12 10 10 13 13 4 3 12 9t16 9q8 2 18 2 25 0 42-18 18-17 18-42 0-10-2-18-3-8-9-16t-9-12q-3-3-13-13-11-10-12-12 18-20 45-20 25 0 42 18l131 130q18 18 18 43 0 24-18 42zM462 324q0 26-20 45-2-1-12-12-10-10-13-13-4-3-12-9t-16-9q-8-2-18-2-25 0-42 18-18 17-18 42 0 10 2 18 3 8 9 16t9 12q3 3 13 13 11 10 12 12-18 19-45 19-25 0-42-17L138 327q-18-18-18-43 0-24 18-42l92-92q18-17 43-17t43 18l129 130q17 18 17 43zM1024 766q0-75-53-128L841 507q-53-52-128-52-77 0-131 55l-55-55q55-54 55-131 0-76-52-128L401 66q-52-53-128-53-75 0-127 52l-93 92Q0 209 0 284t53 128l130 131q53 52 128 52 77 0 131-55l55 55q-55 54-55 131 0 76 52 128l129 130q52 53 128 53 75 0 127-52l93-92q53-52 53-127z" />
</svg>