<svg viewBox="0 0 1097 1024" width="34.28125" height="32" xmlns="http://www.w3.org/2000/svg" xmlns:xlink="http://www.w3.org/1999/xlink">
    <path fill="currentColor" d="M860 325v0q22 21 52 21 31 0 52-21 22-22 22-53 0-30-22-52-21-22-52-22-30 0-52 22t-22 52q0 31 22 53zM222 605q0-30 21-53l413-412q22-22 59-37 37-16 68-16h240q30 0 52 22t22 52v241q0 30-15 67-16 37-38 59L631 941q-21 22-52 22-30 0-52-22L243 657q-21-21-21-52zM0 605q0-30 21-53l413-412q22-22 59-37 37-16 68-16h129q-30 0-67 16-37 15-59 37L151 552q-22 23-22 53 0 31 22 52l271 271q-17 18-30 26-14 9-34 9-30 0-53-22L21 657Q0 636 0 605z" />
</svg>